<svg id="icon_snapchat" data-name="icon/ snapchat" xmlns="http://www.w3.org/2000/svg" xmlns:xlink="http://www.w3.org/1999/xlink" width="21" height="21" viewBox="0 0 21 21">
  <defs>
    <linearGradient id="linear-gradient" x1="0.5" x2="0.5" y2="1" gradientUnits="objectBoundingBox">
      <stop offset="0" stop-color="#0ab3d0"/>
      <stop offset="1" stop-color="#e468ca"/>
    </linearGradient>
  </defs>
  <g id="Rectangle_6730" data-name="Rectangle 6730" fill="rgba(10,179,208,0)" stroke="#9583cc" stroke-width="1">
    <rect width="21" height="21" rx="4" stroke="none"/>
    <rect x="0.5" y="0.5" width="20" height="20" rx="3.5" fill="white"/>
  </g>
  <path id="_5305180_snap_snapchat_snapchat_logo_ghost_icon" data-name="5305180_snap_snapchat_snapchat logo_ghost_icon" d="M7.719,30.96c-.039,0-.078,0-.116,0h0c-.025,0-.05,0-.076,0A3.227,3.227,0,0,1,5.483,30.1,2.917,2.917,0,0,0,4.3,29.458a3.587,3.587,0,0,0-.621-.056,4,4,0,0,0-.861.1,1.778,1.778,0,0,1-.321.049.2.2,0,0,1-.223-.17c-.036-.13-.061-.255-.086-.377-.064-.312-.109-.5-.232-.525C.524,28.248.114,27.927.022,27.7A.309.309,0,0,1,0,27.6a.17.17,0,0,1,.135-.179c2.2-.386,3.189-2.785,3.23-2.886l0-.008a.946.946,0,0,0,.079-.751c-.151-.379-.644-.546-.97-.657-.08-.027-.155-.052-.215-.077-.651-.274-.705-.556-.68-.7a.616.616,0,0,1,.6-.415.4.4,0,0,1,.178.038,1.8,1.8,0,0,0,.784.22.624.624,0,0,0,.469-.159c-.008-.159-.018-.325-.028-.5a8.733,8.733,0,0,1,.183-3.275,3.953,3.953,0,0,1,3.7-2.542l.271,0h.037a3.959,3.959,0,0,1,3.705,2.543,8.737,8.737,0,0,1,.182,3.275l0,.048c-.009.154-.018.3-.025.448a.607.607,0,0,0,.427.158h0a1.871,1.871,0,0,0,.739-.219.527.527,0,0,1,.23-.048.664.664,0,0,1,.264.054l0,0a.507.507,0,0,1,.369.421c0,.163-.114.407-.685.647-.059.025-.135.05-.215.077-.327.11-.819.277-.97.656a.946.946,0,0,0,.079.751l0,.009c.041.1,1.028,2.5,3.23,2.886a.17.17,0,0,1,.135.179.3.3,0,0,1-.023.1c-.091.226-.5.548-1.933.784-.117.019-.162.182-.232.523-.025.124-.051.246-.087.374a.194.194,0,0,1-.2.163h-.018a1.688,1.688,0,0,1-.321-.043,4.028,4.028,0,0,0-.861-.1,3.591,3.591,0,0,0-.621.056,2.912,2.912,0,0,0-1.181.642A3.228,3.228,0,0,1,7.719,30.96Z" transform="translate(3 -12.943)" fill="url(#linear-gradient)"/>
</svg>
