<svg id="icon-24-tik_tok" data-name="icon-24-tik tok" xmlns="http://www.w3.org/2000/svg" xmlns:xlink="http://www.w3.org/1999/xlink" width="24" height="22.908" viewBox="0 0 24 22.908">
  <defs>
    <linearGradient id="linear-gradient" x1="0.5" x2="0.5" y2="1" gradientUnits="objectBoundingBox">
      <stop offset="0" stop-color="#0ab3d0"/>
      <stop offset="1" stop-color="#e468ca"/>
    </linearGradient>
  </defs>
  <g id="Rectangle_6815" data-name="Rectangle 6815" fill="rgba(10,179,208,0)" stroke="#9583cc" stroke-width="1">
    <rect width="24" height="22.909" rx="4" stroke="none"/>
    <rect x="0.5" y="0.5" width="23" height="21.909" rx="3.5" fill="white"/>
  </g>
  <path id="logo-tiktok" d="M60.964,19.666a3.9,3.9,0,0,1-.337-.2,4.745,4.745,0,0,1-.867-.736,4.087,4.087,0,0,1-.977-2.015h0A2.481,2.481,0,0,1,58.748,16H55.8V27.383c0,.153,0,.3-.006.453,0,.019,0,.036,0,.056a.122.122,0,0,1,0,.025v.006a2.5,2.5,0,0,1-1.258,1.984,2.457,2.457,0,0,1-1.218.321,2.5,2.5,0,0,1,0-5,2.46,2.46,0,0,1,.764.121l0-3a5.468,5.468,0,0,0-4.213,1.233,5.776,5.776,0,0,0-1.26,1.554,5.386,5.386,0,0,0-.65,2.472,5.836,5.836,0,0,0,.316,1.954v.007a5.753,5.753,0,0,0,.8,1.458,5.983,5.983,0,0,0,1.275,1.2v-.007l.007.007a5.508,5.508,0,0,0,3.005.9,5.32,5.32,0,0,0,2.23-.493,5.6,5.6,0,0,0,1.811-1.361,5.658,5.658,0,0,0,.987-1.64,6.143,6.143,0,0,0,.355-1.876V21.731c.036.021.511.336.511.336a6.808,6.808,0,0,0,1.754.725,10.1,10.1,0,0,0,1.8.246V20.116A3.817,3.817,0,0,1,60.964,19.666Z" transform="translate(-42.959 -13)" fill="url(#linear-gradient)"/>
</svg>
